<mxfile host="65bd71144e">
    <diagram id="ALMzGOrdsrAG2PmWO61h" name="Page-1">
        <mxGraphModel dx="832" dy="467" grid="1" gridSize="10" guides="1" tooltips="1" connect="1" arrows="1" fold="1" page="1" pageScale="1" pageWidth="1100" pageHeight="850" math="0" shadow="0">
            <root>
                <mxCell id="0"/>
                <mxCell id="1" parent="0"/>
                <mxCell id="41" style="edgeStyle=none;html=1;endArrow=none;endFill=0;" edge="1" parent="1" source="36" target="38">
                    <mxGeometry relative="1" as="geometry"/>
                </mxCell>
                <mxCell id="53" style="edgeStyle=none;html=1;endArrow=none;endFill=0;" edge="1" parent="1" source="36" target="52">
                    <mxGeometry relative="1" as="geometry"/>
                </mxCell>
                <mxCell id="36" value="&lt;p style=&quot;margin:0px;margin-top:4px;text-align:center;text-decoration:underline;&quot;&gt;&lt;b&gt;a1:Atividade&lt;/b&gt;&lt;/p&gt;&lt;hr&gt;&lt;p style=&quot;margin:0px;margin-left:8px;&quot;&gt;id = 1&lt;/p&gt;&lt;p style=&quot;margin:0px;margin-left:8px;&quot;&gt;nome = Curso de HTML&lt;/p&gt;&lt;p style=&quot;margin:0px;margin-left:8px;&quot;&gt;descricao = Aprenda HTML de forma prática&lt;/p&gt;&lt;p style=&quot;margin:0px;margin-left:8px;&quot;&gt;preco = 80.00&lt;/p&gt;" style="verticalAlign=top;align=left;overflow=fill;fontSize=12;fontFamily=Helvetica;html=1;" vertex="1" parent="1">
                    <mxGeometry x="380" y="210" width="270" height="100" as="geometry"/>
                </mxCell>
                <mxCell id="40" style="edgeStyle=none;html=1;endArrow=none;endFill=0;" edge="1" parent="1" source="37" target="39">
                    <mxGeometry relative="1" as="geometry"/>
                </mxCell>
                <mxCell id="37" value="&lt;p style=&quot;margin:0px;margin-top:4px;text-align:center;text-decoration:underline;&quot;&gt;&lt;b&gt;a2:Atividade&lt;/b&gt;&lt;/p&gt;&lt;hr&gt;&lt;p style=&quot;margin:0px;margin-left:8px;&quot;&gt;id = 2&lt;/p&gt;&lt;p style=&quot;margin:0px;margin-left:8px;&quot;&gt;nome = Oficina de Github&lt;/p&gt;&lt;p style=&quot;margin:0px;margin-left:8px;&quot;&gt;descricao = Controle de versões de seus projetos&lt;/p&gt;&lt;p style=&quot;margin:0px;margin-left:8px;&quot;&gt;preco = 50.00&lt;/p&gt;" style="verticalAlign=top;align=left;overflow=fill;fontSize=12;fontFamily=Helvetica;html=1;" vertex="1" parent="1">
                    <mxGeometry x="380" y="340" width="290" height="100" as="geometry"/>
                </mxCell>
                <mxCell id="38" value="&lt;p style=&quot;margin:0px;margin-top:4px;text-align:center;text-decoration:underline;&quot;&gt;&lt;b&gt;c1:Categoria&lt;/b&gt;&lt;/p&gt;&lt;hr&gt;&lt;p style=&quot;margin:0px;margin-left:8px;&quot;&gt;id = 1&lt;/p&gt;&lt;p style=&quot;margin:0px;margin-left:8px;&quot;&gt;descricao: Curso&lt;/p&gt;" style="verticalAlign=top;align=left;overflow=fill;fontSize=12;fontFamily=Helvetica;html=1;" vertex="1" parent="1">
                    <mxGeometry x="780" y="225" width="160" height="70" as="geometry"/>
                </mxCell>
                <mxCell id="39" value="&lt;p style=&quot;margin:0px;margin-top:4px;text-align:center;text-decoration:underline;&quot;&gt;&lt;b&gt;c2:Categoria&lt;/b&gt;&lt;/p&gt;&lt;hr&gt;&lt;p style=&quot;margin:0px;margin-left:8px;&quot;&gt;id = 2&lt;/p&gt;&lt;p style=&quot;margin:0px;margin-left:8px;&quot;&gt;descricao: Oficina&lt;/p&gt;" style="verticalAlign=top;align=left;overflow=fill;fontSize=12;fontFamily=Helvetica;html=1;" vertex="1" parent="1">
                    <mxGeometry x="780" y="355" width="160" height="70" as="geometry"/>
                </mxCell>
                <mxCell id="46" style="edgeStyle=none;html=1;endArrow=none;endFill=0;" edge="1" parent="1" source="42" target="36">
                    <mxGeometry relative="1" as="geometry"/>
                </mxCell>
                <mxCell id="47" style="edgeStyle=none;html=1;endArrow=none;endFill=0;" edge="1" parent="1" source="42" target="37">
                    <mxGeometry relative="1" as="geometry"/>
                </mxCell>
                <mxCell id="42" value="&lt;p style=&quot;margin:0px;margin-top:4px;text-align:center;text-decoration:underline;&quot;&gt;&lt;b&gt;p1:Participante&lt;/b&gt;&lt;/p&gt;&lt;hr&gt;&lt;p style=&quot;margin:0px;margin-left:8px;&quot;&gt;id = 1&lt;/p&gt;&lt;p style=&quot;margin:0px;margin-left:8px;&quot;&gt;nome = José Silva&lt;/p&gt;&lt;p style=&quot;margin:0px;margin-left:8px;&quot;&gt;email = jose@gmail.com&lt;/p&gt;" style="verticalAlign=top;align=left;overflow=fill;fontSize=12;fontFamily=Helvetica;html=1;" vertex="1" parent="1">
                    <mxGeometry x="40" y="150" width="160" height="90" as="geometry"/>
                </mxCell>
                <mxCell id="48" style="edgeStyle=none;html=1;endArrow=none;endFill=0;" edge="1" parent="1" source="43" target="36">
                    <mxGeometry relative="1" as="geometry"/>
                </mxCell>
                <mxCell id="43" value="&lt;p style=&quot;margin:0px;margin-top:4px;text-align:center;text-decoration:underline;&quot;&gt;&lt;b&gt;p2:Participante&lt;/b&gt;&lt;/p&gt;&lt;hr&gt;&lt;p style=&quot;margin:0px;margin-left:8px;&quot;&gt;id = 2&lt;/p&gt;&lt;p style=&quot;margin:0px;margin-left:8px;&quot;&gt;nome = Tiago Faria&lt;/p&gt;&lt;p style=&quot;margin:0px;margin-left:8px;&quot;&gt;email = thiago@gmail.com&lt;/p&gt;" style="verticalAlign=top;align=left;overflow=fill;fontSize=12;fontFamily=Helvetica;html=1;" vertex="1" parent="1">
                    <mxGeometry x="40" y="280" width="160" height="90" as="geometry"/>
                </mxCell>
                <mxCell id="49" style="edgeStyle=none;html=1;endArrow=none;endFill=0;" edge="1" parent="1" source="44" target="36">
                    <mxGeometry relative="1" as="geometry"/>
                </mxCell>
                <mxCell id="50" style="edgeStyle=none;html=1;endArrow=none;endFill=0;" edge="1" parent="1" source="44" target="37">
                    <mxGeometry relative="1" as="geometry"/>
                </mxCell>
                <mxCell id="44" value="&lt;p style=&quot;margin:0px;margin-top:4px;text-align:center;text-decoration:underline;&quot;&gt;&lt;b&gt;p3:Participante&lt;/b&gt;&lt;/p&gt;&lt;hr&gt;&lt;p style=&quot;margin:0px;margin-left:8px;&quot;&gt;id = 3&lt;/p&gt;&lt;p style=&quot;margin:0px;margin-left:8px;&quot;&gt;nome = Maria do Rosário&lt;/p&gt;&lt;p style=&quot;margin:0px;margin-left:8px;&quot;&gt;email = maria@gmail.com&lt;/p&gt;" style="verticalAlign=top;align=left;overflow=fill;fontSize=12;fontFamily=Helvetica;html=1;" vertex="1" parent="1">
                    <mxGeometry x="40" y="410" width="160" height="90" as="geometry"/>
                </mxCell>
                <mxCell id="51" style="edgeStyle=none;html=1;endArrow=none;endFill=0;" edge="1" parent="1" source="45" target="37">
                    <mxGeometry relative="1" as="geometry"/>
                </mxCell>
                <mxCell id="45" value="&lt;p style=&quot;margin:0px;margin-top:4px;text-align:center;text-decoration:underline;&quot;&gt;&lt;b&gt;p4:Participante&lt;/b&gt;&lt;/p&gt;&lt;hr&gt;&lt;p style=&quot;margin:0px;margin-left:8px;&quot;&gt;id = 4&lt;/p&gt;&lt;p style=&quot;margin:0px;margin-left:8px;&quot;&gt;nome = Teresa Silva&lt;/p&gt;&lt;p style=&quot;margin:0px;margin-left:8px;&quot;&gt;email = teresa@gmail.com&lt;/p&gt;" style="verticalAlign=top;align=left;overflow=fill;fontSize=12;fontFamily=Helvetica;html=1;" vertex="1" parent="1">
                    <mxGeometry x="40" y="540" width="160" height="90" as="geometry"/>
                </mxCell>
                <mxCell id="52" value="&lt;p style=&quot;margin:0px;margin-top:4px;text-align:center;text-decoration:underline;&quot;&gt;&lt;b&gt;b1:Bloco&lt;/b&gt;&lt;/p&gt;&lt;hr&gt;&lt;p style=&quot;margin:0px;margin-left:8px;&quot;&gt;id = 1&lt;/p&gt;&lt;p style=&quot;margin:0px;margin-left:8px;&quot;&gt;inicio = 25/09/2017 08:00:00&lt;/p&gt;&lt;p style=&quot;margin:0px;margin-left:8px;&quot;&gt;termino = 25/09/2017 11:00:00&lt;/p&gt;" style="verticalAlign=top;align=left;overflow=fill;fontSize=12;fontFamily=Helvetica;html=1;" vertex="1" parent="1">
                    <mxGeometry x="445" y="30" width="185" height="90" as="geometry"/>
                </mxCell>
                <mxCell id="56" style="edgeStyle=none;html=1;endArrow=none;endFill=0;" edge="1" parent="1" source="54" target="37">
                    <mxGeometry relative="1" as="geometry"/>
                </mxCell>
                <mxCell id="54" value="&lt;p style=&quot;margin:0px;margin-top:4px;text-align:center;text-decoration:underline;&quot;&gt;&lt;b&gt;b2:Bloco&lt;/b&gt;&lt;/p&gt;&lt;hr&gt;&lt;p style=&quot;margin:0px;margin-left:8px;&quot;&gt;id = 2&lt;/p&gt;&lt;p style=&quot;margin:0px;margin-left:8px;&quot;&gt;inicio = 25/09/2017 14:00:00&lt;/p&gt;&lt;p style=&quot;margin:0px;margin-left:8px;&quot;&gt;termino = 25/09/2017 18:00:00&lt;/p&gt;" style="verticalAlign=top;align=left;overflow=fill;fontSize=12;fontFamily=Helvetica;html=1;" vertex="1" parent="1">
                    <mxGeometry x="340" y="530" width="185" height="90" as="geometry"/>
                </mxCell>
                <mxCell id="57" style="edgeStyle=none;html=1;endArrow=none;endFill=0;" edge="1" parent="1" source="55" target="37">
                    <mxGeometry relative="1" as="geometry"/>
                </mxCell>
                <mxCell id="55" value="&lt;p style=&quot;margin:0px;margin-top:4px;text-align:center;text-decoration:underline;&quot;&gt;&lt;b&gt;b3:Bloco&lt;/b&gt;&lt;/p&gt;&lt;hr&gt;&lt;p style=&quot;margin:0px;margin-left:8px;&quot;&gt;id = 3&lt;/p&gt;&lt;p style=&quot;margin:0px;margin-left:8px;&quot;&gt;inicio = 26/09/2017 08:00:00&lt;/p&gt;&lt;p style=&quot;margin:0px;margin-left:8px;&quot;&gt;termino = 26/09/2017 11:00:00&lt;/p&gt;" style="verticalAlign=top;align=left;overflow=fill;fontSize=12;fontFamily=Helvetica;html=1;" vertex="1" parent="1">
                    <mxGeometry x="570" y="530" width="185" height="90" as="geometry"/>
                </mxCell>
            </root>
        </mxGraphModel>
    </diagram>
</mxfile>